<svg xmlns="http://www.w3.org/2000/svg" width="1200" height="700" viewBox="0 0 1200 700">
<defs><linearGradient id="g" x1="0" x2="1" y1="0" y2="1"><stop stop-color="#0a0a0a"/><stop offset="1" stop-color="#1e293b"/></linearGradient><filter id="glow"><feGaussianBlur stdDeviation="5" result="b"/><feMerge><feMergeNode in="b"/><feMergeNode in="SourceGraphic"/></feMerge></filter></defs>
<rect width="1200" height="700" fill="url(#g)"/><g opacity=".25"><rect x="80" y="520" width="45" height="100" rx="10" fill="#38bdf8"/><rect x="180" y="465" width="45" height="155" rx="10" fill="#38bdf8"/><rect x="280" y="410" width="45" height="210" rx="10" fill="#38bdf8"/><rect x="380" y="355" width="45" height="265" rx="10" fill="#38bdf8"/><rect x="480" y="300" width="45" height="320" rx="10" fill="#38bdf8"/><rect x="580" y="520" width="45" height="100" rx="10" fill="#38bdf8"/><rect x="680" y="465" width="45" height="155" rx="10" fill="#38bdf8"/><rect x="780" y="410" width="45" height="210" rx="10" fill="#38bdf8"/><rect x="880" y="355" width="45" height="265" rx="10" fill="#38bdf8"/><rect x="980" y="300" width="45" height="320" rx="10" fill="#38bdf8"/></g>
<path d="M90 470 C250 390 310 200 450 300 S650 520 820 320 S1000 180 1120 240" fill="none" stroke="#38bdf8" stroke-width="8" filter="url(#glow)"/>
<circle cx="90" cy="470" r="12" fill="#38bdf8"/><circle cx="450" cy="300" r="12" fill="#38bdf8"/><circle cx="820" cy="320" r="12" fill="#38bdf8"/><circle cx="1120" cy="240" r="12" fill="#38bdf8"/>
<text x="70" y="110" fill="#fff" font-size="54" font-family="Arial, sans-serif" font-weight="700">Loan Profitability</text>
<text x="72" y="165" fill="#a0a0a0" font-size="26" font-family="Arial, sans-serif">Power BI • SQL • Python • Insights</text>
</svg>